<svg width="20" height="20" viewBox="0 0 20 20" fill="none" xmlns="http://www.w3.org/2000/svg">
<path d="M19.3751 10C19.379 11.4884 18.8961 12.9373 18.0001 14.1258C17.9507 14.1914 17.8889 14.2467 17.8182 14.2885C17.7475 14.3303 17.6692 14.3577 17.5879 14.3693C17.5066 14.3808 17.4238 14.3762 17.3442 14.3558C17.2647 14.3353 17.1899 14.2994 17.1243 14.25C17.0586 14.2007 17.0033 14.1389 16.9615 14.0681C16.9198 13.9974 16.8923 13.9192 16.8808 13.8378C16.8692 13.7565 16.8738 13.6737 16.8943 13.5942C16.9148 13.5146 16.9507 13.4399 17.0001 13.3742C17.7335 12.4025 18.1286 11.2174 18.1251 10C18.1251 8.50816 17.5324 7.07742 16.4775 6.02253C15.4226 4.96764 13.9919 4.37501 12.5001 4.37501C11.0082 4.37501 9.57747 4.96764 8.52257 6.02253C7.46768 7.07742 6.87505 8.50816 6.87505 10C6.87505 10.1658 6.8092 10.3247 6.69199 10.4419C6.57478 10.5592 6.41581 10.625 6.25005 10.625C6.08429 10.625 5.92532 10.5592 5.80811 10.4419C5.6909 10.3247 5.62505 10.1658 5.62505 10C5.62474 9.36929 5.71123 8.74152 5.88208 8.13438C5.79693 8.12501 5.71099 8.12501 5.62505 8.12501C4.63049 8.12501 3.67666 8.52009 2.9734 9.22336C2.27014 9.92662 1.87505 10.8804 1.87505 11.875C1.87505 12.8696 2.27014 13.8234 2.9734 14.5267C3.67666 15.2299 4.63049 15.625 5.62505 15.625H7.50005C7.66581 15.625 7.82478 15.6909 7.94199 15.8081C8.0592 15.9253 8.12505 16.0842 8.12505 16.25C8.12505 16.4158 8.0592 16.5747 7.94199 16.6919C7.82478 16.8092 7.66581 16.875 7.50005 16.875H5.62505C4.93769 16.8752 4.25767 16.7336 3.62748 16.4591C2.99729 16.1847 2.43045 15.7832 1.96237 15.2799C1.4943 14.7765 1.13503 14.1821 0.907017 13.5336C0.679003 12.8852 0.587138 12.1967 0.637159 11.5111C0.68718 10.8256 0.878013 10.1577 1.19774 9.54926C1.51746 8.94079 1.95922 8.40477 2.4954 7.97469C3.03159 7.5446 3.6507 7.22969 4.31405 7.04963C4.97741 6.86956 5.67077 6.8282 6.35083 6.92813C7.04333 5.5431 8.18313 4.43241 9.58561 3.77597C10.9881 3.11953 12.5711 2.95579 14.0783 3.31126C15.5854 3.66674 16.9284 4.52061 17.8898 5.73458C18.8511 6.94854 19.3745 8.4515 19.3751 10ZM13.9329 13.3078L12.5001 14.7414V10C12.5001 9.83425 12.4342 9.67527 12.317 9.55806C12.1998 9.44085 12.0408 9.37501 11.8751 9.37501C11.7093 9.37501 11.5503 9.44085 11.4331 9.55806C11.3159 9.67527 11.2501 9.83425 11.2501 10V14.7414L9.81724 13.3078C9.69996 13.1905 9.5409 13.1247 9.37505 13.1247C9.2092 13.1247 9.05014 13.1905 8.93286 13.3078C8.81559 13.4251 8.7497 13.5842 8.7497 13.75C8.7497 13.9159 8.81559 14.0749 8.93286 14.1922L11.4329 16.6922C11.4909 16.7503 11.5598 16.7964 11.6357 16.8279C11.7116 16.8593 11.7929 16.8755 11.8751 16.8755C11.9572 16.8755 12.0385 16.8593 12.1144 16.8279C12.1903 16.7964 12.2592 16.7503 12.3172 16.6922L14.8172 14.1922C14.9345 14.0749 15.0004 13.9159 15.0004 13.75C15.0004 13.5842 14.9345 13.4251 14.8172 13.3078C14.7 13.1905 14.5409 13.1247 14.3751 13.1247C14.2092 13.1247 14.0501 13.1905 13.9329 13.3078Z" fill="currentColor"/>
</svg>
