<svg width="24" height="24" viewBox="0 0 24 24" fill="none" xmlns="http://www.w3.org/2000/svg">
<path d="M13.5 15.5325C14.6757 14.8002 15.5809 13.7049 16.0787 12.4123C16.5765 11.1198 16.6398 9.70025 16.259 8.36852C15.8782 7.03678 15.074 5.86531 13.9681 5.03132C12.8622 4.19733 11.5148 3.74622 10.1297 3.74622C8.74457 3.74622 7.39714 4.19733 6.29125 5.03132C5.18536 5.86531 4.38117 7.03678 4.00036 8.36852C3.61954 9.70025 3.68282 11.1198 4.18062 12.4123C4.67842 13.7049 5.58366 14.8002 6.75937 15.5325C4.82344 16.1662 3.08156 17.3503 1.68094 19.0172C1.55289 19.1694 1.49058 19.3664 1.50772 19.5646C1.52486 19.7628 1.62005 19.9461 1.77234 20.0742C1.92463 20.2022 2.12156 20.2645 2.31979 20.2474C2.51802 20.2303 2.70132 20.1351 2.82937 19.9828C4.71094 17.7365 7.30406 16.5 10.125 16.5C12.9459 16.5 15.5391 17.7365 17.4262 19.9828C17.5543 20.1351 17.7376 20.2303 17.9358 20.2474C18.1341 20.2645 18.331 20.2022 18.4833 20.0742C18.6356 19.9461 18.7308 19.7628 18.7479 19.5646C18.765 19.3664 18.7027 19.1694 18.5747 19.0172C17.1731 17.3503 15.4312 16.1662 13.5 15.5325ZM5.25 10.125C5.25 9.16078 5.53591 8.21825 6.07158 7.41656C6.60725 6.61487 7.36863 5.99003 8.25942 5.62105C9.15021 5.25208 10.1304 5.15553 11.0761 5.34364C12.0217 5.53174 12.8904 5.99604 13.5721 6.67782C14.2539 7.3596 14.7182 8.22824 14.9063 9.1739C15.0944 10.1196 14.9979 11.0998 14.6289 11.9905C14.2599 12.8813 13.6351 13.6427 12.8334 14.1784C12.0317 14.7141 11.0892 15 10.125 15C8.83252 14.9985 7.59341 14.4844 6.6795 13.5705C5.76558 12.6565 5.25149 11.4174 5.25 10.125ZM19.44 6.14997C19.9745 7.40703 20.25 8.75899 20.25 10.125C20.25 11.4909 19.9745 12.8429 19.44 14.1C19.3823 14.2352 19.2861 14.3504 19.1635 14.4315C19.0408 14.5125 18.897 14.5556 18.75 14.5556C18.6258 14.5557 18.5036 14.525 18.3943 14.4662C18.2849 14.4074 18.1919 14.3224 18.1235 14.2188C18.0551 14.1151 18.0135 13.9962 18.0024 13.8725C17.9913 13.7489 18.0111 13.6244 18.06 13.5103C18.5153 12.4397 18.75 11.2883 18.75 10.125C18.75 8.96161 18.5153 7.8102 18.06 6.73965C17.9818 6.55665 17.9795 6.35009 18.0536 6.16539C18.1277 5.9807 18.2722 5.83301 18.4552 5.75481C18.6382 5.67661 18.8447 5.67431 19.0294 5.74842C19.2141 5.82253 19.3618 5.96697 19.44 6.14997ZM23.25 10.125C23.2535 11.9026 22.8933 13.6621 22.1916 15.2953C22.1095 15.4723 21.9617 15.6103 21.7795 15.6801C21.5973 15.7499 21.395 15.746 21.2157 15.6691C21.0364 15.5923 20.8941 15.4485 20.819 15.2685C20.7439 15.0884 20.7419 14.8862 20.8134 14.7047C21.4314 13.2569 21.75 11.6991 21.75 10.125C21.75 8.55085 21.4314 6.99301 20.8134 5.54528C20.7712 5.45425 20.7477 5.35567 20.7443 5.25539C20.7408 5.1551 20.7576 5.05515 20.7935 4.96145C20.8294 4.86775 20.8837 4.7822 20.9533 4.70988C21.0228 4.63756 21.1062 4.57992 21.1984 4.5404C21.2906 4.50087 21.3898 4.48025 21.4902 4.47977C21.5905 4.47928 21.6899 4.49893 21.7826 4.53756C21.8752 4.57619 21.9591 4.633 22.0293 4.70465C22.0996 4.77629 22.1548 4.8613 22.1916 4.95465C22.8933 6.58786 23.2535 8.34738 23.25 10.125Z" fill="currentColor"/>
</svg>
