<svg width="40" height="40" viewBox="0 0 40 40" fill="none" xmlns="http://www.w3.org/2000/svg">
<path fill-rule="evenodd" clip-rule="evenodd" d="M25.7026 5.28594C24.4524 4.03569 22.7567 3.33331 20.9886 3.33331H10.4167C6.73477 3.33331 3.75 6.31808 3.75 9.99998V30C3.75 33.6819 6.73477 36.6666 10.4167 36.6666H27.0833C30.7652 36.6666 33.75 33.6819 33.75 30V16.0947C33.75 14.3266 33.0476 12.6309 31.7974 11.3807L25.7026 5.28594Z" fill="#F21E1E"/>
<path fill-rule="evenodd" clip-rule="evenodd" d="M25.7026 5.28594C24.4524 4.03569 22.7567 3.33331 20.9886 3.33331H10.4167C6.73477 3.33331 3.75 6.31808 3.75 9.99998V30C3.75 33.6819 6.73477 36.6666 10.4167 36.6666H27.0833C30.7652 36.6666 33.75 33.6819 33.75 30V16.0947C33.75 14.3266 33.0476 12.6309 31.7974 11.3807L25.7026 5.28594Z" fill="white" fill-opacity="0.8"/>
<path fill-rule="evenodd" clip-rule="evenodd" d="M23.75 3.93207C24.4699 4.25968 25.1326 4.71584 25.7026 5.28589L31.7974 11.3806C31.7976 11.3808 31.7978 11.381 31.7979 11.3812C32.3677 11.9511 32.8237 12.6136 33.1512 13.3333H27.9167C25.6155 13.3333 23.75 11.4678 23.75 9.1666V3.93207Z" fill="#F21E1E"/>
<path d="M16.25 21.25C16.25 20.0994 17.1827 19.1666 18.3333 19.1666H34.1667C35.3173 19.1666 36.25 20.0994 36.25 21.25V28.75C36.25 29.9006 35.3173 30.8333 34.1667 30.8333H18.3333C17.1827 30.8333 16.25 29.9006 16.25 28.75V21.25Z" fill="#F21E1E"/>
<path d="M29.4391 27.9166V22.95H32.7525V23.75H30.3458V25.1233H32.4525V25.9233H30.3458V27.9166H29.4391Z" fill="white"/>
<path d="M24.4709 27.9166V22.95H26.0909C26.6153 22.95 27.0709 23.0566 27.4576 23.27C27.8487 23.4788 28.1509 23.77 28.3642 24.1433C28.5776 24.5122 28.6842 24.9411 28.6842 25.43C28.6842 25.9144 28.5776 26.3455 28.3642 26.7233C28.1509 27.0966 27.8487 27.39 27.4576 27.6033C27.0709 27.8122 26.6153 27.9166 26.0909 27.9166H24.4709ZM25.3776 27.1166H26.1109C26.4487 27.1166 26.7398 27.0477 26.9842 26.91C27.2331 26.7677 27.4264 26.5722 27.5642 26.3233C27.702 26.07 27.7709 25.7722 27.7709 25.43C27.7709 25.0833 27.702 24.7855 27.5642 24.5366C27.4264 24.2877 27.2331 24.0944 26.9842 23.9566C26.7398 23.8188 26.4487 23.75 26.1109 23.75H25.3776V27.1166Z" fill="white"/>
<path d="M20.1146 27.9166V22.95H21.968C22.3058 22.95 22.6035 23.0122 22.8613 23.1366C23.1235 23.2566 23.328 23.4344 23.4746 23.67C23.6213 23.9011 23.6946 24.1833 23.6946 24.5166C23.6946 24.8455 23.6191 25.1277 23.468 25.3633C23.3213 25.5944 23.1191 25.7722 22.8613 25.8966C22.6035 26.0211 22.3058 26.0833 21.968 26.0833H21.0213V27.9166H20.1146ZM21.0213 25.2833H21.9813C22.1458 25.2833 22.288 25.2522 22.408 25.19C22.528 25.1233 22.6213 25.0322 22.688 24.9166C22.7546 24.8011 22.788 24.6677 22.788 24.5166C22.788 24.3611 22.7546 24.2277 22.688 24.1166C22.6213 24.0011 22.528 23.9122 22.408 23.85C22.288 23.7833 22.1458 23.75 21.9813 23.75H21.0213V25.2833Z" fill="white"/>
</svg>
